<svg id="_5296499_fb_facebook_facebook_logo_icon" data-name="5296499_fb_facebook_facebook logo_icon" xmlns="http://www.w3.org/2000/svg" width="22" height="22" viewBox="0 0 22 22">
  <path id="Path_2589" data-name="Path 2589" d="M22,11A11,11,0,1,0,9.281,21.866V14.18H6.488V11H9.281V8.577c0-2.757,1.642-4.28,4.155-4.28a16.915,16.915,0,0,1,2.462.215V7.219H14.511a1.59,1.59,0,0,0-1.793,1.718V11H15.77l-.488,3.18H12.719v7.687A11,11,0,0,0,22,11Z" fill="#1877f2"/>
  <path id="Path_2590" data-name="Path 2590" d="M159.794,109.883l.488-3.18H157.23V104.64a1.59,1.59,0,0,1,1.793-1.718h1.387v-2.707a16.916,16.916,0,0,0-2.462-.215c-2.513,0-4.155,1.523-4.155,4.28V106.7H151v3.18h2.793v7.687a11.12,11.12,0,0,0,3.438,0v-7.687Z" transform="translate(-144.512 -95.703)" fill="#fff"/>
</svg>
